<svg version="1.1" xmlns="http://www.w3.org/2000/svg" xmlns:xlink="http://www.w3.org/1999/xlink" x="0px" y="0px" width="449.272px" height="444.258px" viewBox="0 0 449.272 444.258" enable-background="new 0 0 449.272 444.258" xml:space="preserve">
	<path fill="#C23026" d="M133.242,204.649c0.438,1.598-0.961,2.297-1.724,3.182c-10.796,12.52-18.295,26.99-24.013,42.298 c-5.531,14.807-9.756,30.059-11.619,45.853c-0.044,0.375-0.213,0.736-0.323,1.101c-1.97,1.224-4.584,0.848-6.362,2.552 c-1.337-0.529-2.527,0.131-3.73,0.509c-17.692,5.555-34.865,12.521-52.184,19.099c-8.172,3.104-16.325,6.315-24.855,8.382 c-2.007,0.486-4.017,0.985-6.1,0.799c-2.309-0.206-2.922-1.32-1.762-3.375c0.818-1.45,1.814-2.791,2.974-4.025 c7.499-7.979,12.783-17.283,16.766-27.454c4.137-10.562,7.825-21.27,10.755-32.211c2.468-9.218,5.239-18.311,9.01-27.074 c1.368-3.179,2.931-6.305,4.718-9.266c4.445-7.362,11.636-11.063,19.371-13.85c10.98-3.955,22.419-5.757,33.987-6.782 C109.852,203.35,121.555,203.329,133.242,204.649z"/>
	<path fill="#C23026" d="M143.881,354.049c7.018-0.745,14.078-1.018,21.061-2.181c23.247-3.87,44.787-12.131,64.595-24.89 c3.344-2.154,6.586-4.468,9.876-6.709c0.672,2.11,0.732,4.299,0.775,6.481c0.318,16.323-1.834,32.33-5.799,48.156 c-2.017,8.051-4.794,15.682-9.03,22.859c-3.797,6.433-9.353,10.415-16.083,13.104c-8.408,3.36-17.21,5.261-26.042,7.055 c-10.97,2.228-21.995,4.206-32.807,7.164c-10.964,2.999-21.605,6.755-31.08,13.238c-1.909,1.307-3.686,2.817-5.649,4.032 c-1.455,0.901-3.021,2.687-4.817,1.513c-2.014-1.316-0.799-3.549-0.489-5.349c0.281-1.633,0.94-3.205,1.477-4.788 c3.275-9.647,7.865-18.722,12.059-27.976c6.209-13.7,12.842-27.215,18.287-41.254c0.366-0.944,0.983-1.824,0.93-2.908 C142.231,359.144,143.756,356.85,143.881,354.049z"/>
	<path fill="#F58020" d="M143.881,354.049c-0.125,2.801-1.65,5.095-2.734,7.548c-7.554,5.344-14.9,10.982-22.733,15.931 c-3.906,2.468-7.705,5.105-11.626,7.548c-16.593,10.341-33.651,19.854-51.316,28.238c-10.689,5.073-21.499,9.893-32.981,12.98 c-2.496,0.671-5.019,1.188-7.608,1.198c-3.451,0.014-4.929-1.22-5.575-4.616c-0.39-2.049-0.24-4.105,0.156-6.143 c0.715-3.681,1.962-7.197,3.406-10.643c3.437-8.199,7.683-15.963,12.278-23.573c7.786-12.893,16.42-25.197,25.531-37.159 c7.09-9.308,14.312-18.519,22.068-27.309c5.447-6.173,10.803-12.423,16.452-18.416c1.779-1.705,4.392-1.329,6.362-2.553 c-0.576,7.266-1.105,14.532-1.005,21.826c-1.926,1.182-2.888,3.248-4.387,4.796c-7.331,7.566-14.269,15.478-21.066,23.517 c-4.389,5.19-8.742,10.417-12.941,15.761C50.541,370.14,45.087,377.426,40,384.99c-3.597,5.349-6.849,10.855-9.213,16.857 c-0.516,1.31-0.972,2.683-1.172,4.068c-0.406,2.808,0.688,3.835,3.46,3.374c2.554-0.424,4.984-1.318,7.331-2.367 c12.104-5.408,23.49-12.155,34.743-19.095c10.148-6.259,20.075-12.882,29.735-19.885c6.751-4.895,13.593-9.672,19.864-15.195 C131.125,353.181,137.503,353.615,143.881,354.049z"/>
	<path fill="#222222" d="M448.787,0.129c-1.489-0.573-1.904,0.912-2.652,1.537c-1.478,1.236-2.576,3.148-4.388,3.722 c-1.561,0.495-2.304,1.004-2.726,2.634c-0.533,2.064-1.777,2.642-3.787,2.193c-0.989-0.221-1.901-0.767-2.876-1.077 c-4.119-1.31-8.093-1.391-11.663,1.528c-0.499,0.408-1.326,1.116-1.626,0.761c-1.632-1.93-3.199-0.166-4.677-0.045 c-0.877-1.468,0.984-2.287,0.926-3.723c-2.223,1.316-3.168,4.133-6.453,3.746c1.61,2.61,0.346,4.351-1.284,5.962 c-3.06,3.023-6.151,6.014-9.208,9.04c-2.378,2.354-4.734,4.731-7.079,7.117c-0.827,0.841-1.482,1.419-2.93,0.898 c-1.385-0.499-2.993-0.22-4.163-1.548c-0.91-1.033-1.998-0.917-2.989,0.105c-0.345,0.356-0.816,0.636-1.281,0.822 c-0.758,0.304-1.473,0.944-2.349-0.022c-0.764-0.842-0.198-1.411,0.13-2.028c0.512-0.963,1.124-1.873,1.699-2.814 c-0.646-0.323-0.858-0.008-1.156,0.174c-1.878,1.146-2.539,3.982-5.403,3.814c-0.527-0.031-0.565,0.798-0.393,1.241 c0.709,1.819,0.623,3.238-1.63,3.743c-4.509,6.159-10.442,10.953-15.734,16.36c-2.124,2.17-4.303,4.291-6.634,6.279 c-1.632,1.392-4.12,2.521-4.366,5.091c-0.397,4.135-2.505,7.223-5.348,10.043c-9.41,9.337-18.758,18.736-28.14,28.102 c-0.724,0.723-1.408,1.641-2.3,2.012c-3.128,1.301-5.166,3.857-6.96,6.412c-1.953,2.782-4.49,4.916-6.708,7.389 c-0.552,0.616-1.281,1.113-1.951,0.359c-1.508-1.699-2.364-0.484-3.356,0.572c-1.233,1.312-2.527,2.568-3.776,3.866 c-0.621,0.645-1.536,1.456-0.871,2.304c1.599,2.038-0.168,2.967-1.196,4.018c-4.501,4.598-9.071,9.129-13.632,13.669 c-4.075,4.056-7.933,8.349-12.712,11.64c-0.607,0.418-1.027,1.184-1.931,0.49c-0.937-0.72-0.937-1.904-0.992-2.771 c-0.078-1.232,0.986-0.616,1.65-0.406c0.263,0.083,0.5-0.012,0.55-0.331c0.176-1.142,0.379-2.492-0.713-3.126 c-0.967-0.561-2.529-1.317-3.213,0.337c-0.759,1.833-2.126,1.047-2.727,0.517c-0.678-0.598-1.363-1.984,0.106-2.815 c1.471-0.832,1.439-2.04,0.694-3.184c-0.603-0.926-2.042-0.43-3.054,0.956c-0.322,0.441-0.635,0.72-1.247,0.622 c-0.764-0.122-1.688-0.079-1.918-0.962c-0.212-0.808-0.681-2.109,0.218-2.455c1.928-0.742,1.87-2.274,0.965-3.165 c-0.799-0.786-2.42-1.228-3.128,1.041c-0.358,1.148-2.11,0.464-2.823-0.325c-0.46-0.509-1.028-1.585-0.223-2.398 c0.443-0.447,1.741,0.576,1.694-0.712c-0.021-0.58,0.31-1.529-0.704-1.999c-2.049,1.217-3.121,3.715-5.549,4.516 c-0.574,0.189-0.726,0.747-0.335,1.228c1.59,1.958,0.295,3.431-0.968,4.642c-6.957,6.676-12.947,14.278-20.025,20.833 c-0.66,0.611-1.301,1.258-2.036,1.765c-1.186,0.819-2.167,0.629-2.681-0.834c-0.34-0.969-0.724-1.934-0.939-2.933 c-0.28-1.308,0.238-2.514,1.606-2.515c2.253-0.002,1.572-1.511,1.693-2.668c0.766-1.102,2.361-1.042,3.08-2.105 c0.446-0.659,1.04-1.626,0.225-2.362c-0.661-0.597-1.588-0.053-2.052,0.394c-0.888,0.854-1.538,1.955-2.287,2.953 c-0.574,1.129-2.176-1.062-2.715,1.012c-0.741,2.851-1.056,2.915-3.635,1.911c-2.65-1.032-5.273-1.885-8.19-1.834 c-2.729,0.048-5.127,0.979-7.218,2.44c-1.032-1.203,0.091-2.939-1.447-3.269c-1.503-0.323-3.014-0.139-3.67,1.743 c-0.211,0.604-0.927,0.523-1.083-0.072c-0.276-1.052-0.236-1.992-1.919-1.797c-0.677,0.079-0.784-1.072,0.239-1.537 c1.632-0.742,1.683-1.914,0.809-3.635c-0.99,0.99-1.786,1.815-2.615,2.607c-0.824,0.786-1.614,1.533-2.728,2.041 c-1.524,0.695,0.393,2.16-0.401,3.433c-0.529,0.848-1.061,1.636-1.756,2.332c-4.357,4.366-8.674,8.773-13.112,13.056 c-1.411,1.362-2.783,2.878-3.235,4.621c-0.699,2.695-2.463,4.396-4.253,6.198c-1.811,1.824-3.667,3.604-5.44,5.463 c-1.52,1.593-3.002,3.171-5.462,3.073c-0.851-0.034-1.537,0.424-1.929,1.088c-1.358,2.301-3.026,2.083-5.044,0.241 c-0.052,1.88,0.762,3.489-1.208,4.456c-0.594,0.292-0.567,1.848-0.825,2.825c0.438,1.598-0.961,2.297-1.724,3.182 c-10.796,12.52-18.295,26.99-24.013,42.298c-5.531,14.807-9.756,30.059-11.619,45.853c-0.044,0.375-0.213,0.736-0.323,1.103 c-0.576,7.264-1.105,14.529-1.004,21.824c0.724,1.914-0.018,4.078,1.011,5.941c4.173-5.043,8.382-10.056,12.511-15.135 c6.73-8.278,13.463-16.615,21.371-23.757c9.584-8.655,21.106-13.539,34.049-14.732c3.085-0.284,6.143,0.034,9.062,1.317 c1.927,0.847,2.617,2.026,2.33,4.205c-0.994,7.555-2.874,14.839-5.538,21.988c-3.321,8.911-8.805,16.114-15.967,22.238 c-9.672,8.27-19.827,15.892-30.299,23.107c-2.744,1.89-5.481,3.791-8.221,5.687c3.003,1.958,6.629,1.848,9.881,2.979 c6.378,0.434,12.756,0.869,19.134,1.303c7.018-0.745,14.078-1.018,21.061-2.181c23.247-3.87,44.787-12.131,64.595-24.89 c3.344-2.154,6.586-4.468,9.876-6.709c3.19-3.893,7.69-5.345,12.292-6.607c-1.683-2.467-1.749-2.541,0.194-4.28 c0.824-0.738,1.572-1.458,1.458-2.538c-0.226-2.134,1.207-3.253,2.466-4.514c1.909-1.913,3.809-3.836,5.736-5.73 c2.058-2.022,3.825-4.329,6.995-4.967c1.531-0.308,2.859-1.515,4.047-2.75c3.748-3.893,7.584-7.704,11.453-11.478 c1.807-1.761,3.111-4.607,6.51-3.447c0.184,0.063,0.645-0.118,0.676-0.253c0.581-2.572,3.488-3.531,4.466-6.167 c-1.398-0.081-2.541-0.363-3.177,0.91c-0.272,0.544-0.216,1.398-1.109,1.207c-0.924-0.198-0.465-0.887-0.431-1.503 c0.072-1.323-0.927-0.712-1.596-0.772c-0.94-0.084-0.952-0.626-0.449-1.268c0.445-0.568,1.622-0.189,1.678-1.271 c0.045-0.883,0.516-1.775,0.06-2.647c-0.646-1.237-2.29,0.067-3.071-1.274c1.738-2.692,2.704-5.707,2.307-9.036 c-0.245-2.05-0.823-3.988-1.706-5.884c-1.233-2.645-0.901-3.3,1.758-4.228c0.379-0.132,1.074,0.323,0.951-0.524 c-0.293-2.022,0.713-3.054,2.462-3.797c1.015-0.431,1.144-1.521,1.092-2.617c-1.447-0.213-2.606-0.036-3.16,1.489 c-0.558,1.538-1.645,1.857-3.261,1.993c-1.188,0.1-0.156,2.578-1.761,3.014c-0.594,0.161-1.288,0.214-1.88,0.076 c-1.365-0.318-3.105-0.469-3.721-1.745c-0.754-1.559,0.905-2.527,1.853-3.465c6.859-6.778,13.798-13.474,20.656-20.253 c1.842-1.82,3.687-2.549,6.164-0.445c0.085-1.933,1.23-2.826,2.109-3.898c1.15-0.754,2.159-1.622,2.755-3.014 c-2.62-0.376-2.62-0.376-3.712,1.842c-0.477-0.175-1.017-0.261-1.419-0.542c-1.117-0.782-1.436-2.737-0.467-2.977 c2.76-0.686,1.262-2.769,0.752-3.31c-0.715-0.757-2.376-0.889-2.888,0.903c-0.326,1.141-1.116,0.625-1.845,0.581 c-1.151-0.069-1.46-0.65-1.569-1.715c-0.116-1.133-0.082-1.71,1.327-1.414c0.585,0.123,0.657-0.605,0.605-1.122 c-0.087-0.871,0.093-1.929-0.957-2.319c-0.997-0.369-1.999-0.305-2.614,0.797c-0.902,1.616-2.125,0.777-2.97,0.123 c-0.237-0.183-1.372-1.913,0.623-2.625c1.608-0.573,0.97-2.105,0.267-3.19c-0.777-1.2-2.071-0.738-3.175-0.667 c-0.289,0.019-0.349,0.486-0.108,0.899c0.222,0.381,0.506,1.175-0.264,1.176c-1.103,0.001-2.304-0.083-3.112-1.067 c-0.527-0.642-0.094-1.102,0.277-1.663c2.636-3.975,6.087-7.215,9.459-10.518c5.872-5.752,11.432-11.821,17.582-17.291 c0.37-0.492,0.722-0.998,1.114-1.471c0.503-0.607,1.104-1.137,1.753-0.232c1.006,1.402-1.434,0.561-1.078,1.585 c0.682,0.305,1.366,0.846,2.097,0.143c1.948-1.872,3.877-3.764,5.822-5.639c0.572-0.551,0.602-1.144,0.045-1.651 c-1.359-1.237-0.771-2.165,0.338-3.15c2.388-2.121,4.446-4.543,7.211-6.327c3.341-2.156,5.16-5.939,7.883-8.748 c9.497-9.797,19.256-19.339,28.875-29.018c2.008-2.02,4.41-4.056,6.991-4.197c3.718-0.203,5.5-2.614,7.467-4.796 c2.221-2.463,4.628-4.72,6.936-7.082c5.445-5.571,10.958-11.076,16.417-16.634c0.369-0.376,0.793-0.967,1.195-0.774 c2.661,1.279,3.242-0.959,4.336-2.417c1.008-1.344,2.693-2.18,3.462-4.146c-1.519,0.148-2.112,1.094-2.986,1.456 c-0.702,0.291-1.337,1.248-2.364,0.326c-1.159-1.04-0.403-1.879,0.144-2.633c1.207-1.664,1.962-3.08,0.091-4.939 c-1.166-1.158-1.163-4.708-0.365-5.53c5.512-5.684,11.041-11.353,16.587-17.003c1.608-1.639,3.414-2.751,5.873-1.267 c-0.128-3.288,2.924-4.17,4.066-6.419c-1.524-0.54-2.282,2.413-4.173,0.687c0.518-1.2,2.279-2.543,0.234-4.009 c-0.383-0.275-0.114-0.945,0.244-1.373c3.701-4.42,3.191-9.207,1.285-14.153c-1.083-2.811-0.754-3.564,2.202-4.9 c0.736-0.333,1.682-0.663,1.788-1.303c0.511-3.098,3.345-4.376,4.996-6.557c0.406-0.536,0.618-0.997,0.767-1.576 C449.11,0.537,448.949,0.333,448.787,0.129z M175.648,189.538c-1.344,1.158-2.635,2.379-3.917,3.606 c-0.643,0.616-1.52,1.271-1.391,2.207c0.261,1.899-1.136,2.754-2.16,3.8c-3.633,3.712-3.658,3.688-7.773,0.351 c-0.525,1.538-0.182,2.643,0.074,3.751c0.221,0.959,1.192,1.899,0.499,2.872c-0.734,1.031-1.648,2.014-2.682,2.732 c-1.852,1.287-5.336-0.639-5.931-3.067c-0.337-1.374,1.252-3.28-0.824-4.081c-1.239-0.478-3.54,0.183-3.963-0.521 c-1.059-1.764-0.064-3.503,1.505-4.949c2.642-2.435,5.055-5.117,7.677-7.574c1.451-1.36,2.368-3.323,5.248-2.924 c1.41,0.195,3.247-1.815,3.685-3.881c0.474-2.235,1.409-4.083,3.693-4.96c2.87-1.102,5.77-1.026,8.688-0.244 c0.86,0.231,1.146,0.868,1.252,1.716C179.864,182.684,179.123,186.545,175.648,189.538z M214.556,174.581 c-0.591-0.611-0.219-1.105,0.105-1.688c1.661-2.99,4.528-4.874,6.311-6.994c1.758-1.758,3.109-3.136,4.491-4.482 c0.995-0.969,1.815-2.154,3.444-2.251c1.105-0.066,2.295-1.005,2.254-1.816c-0.142-2.812,2.888-2.433,3.828-4.167 c0.458-0.846,1.978-0.844,2.558,0.246c0.521,0.978-0.219,1.682-1.242,1.92c-0.648,0.151-1.303,0.315-1.263,1.132 c0.071,1.465-0.758,1.849-2.018,2.223c-1.026,0.305-2.306,1.203-1.979,2.437c0.532,2.007-0.852,2.801-1.881,3.855 c-2.246,2.301-4.738,4.394-6.756,6.875c-1.696,2.085-3.945,2.544-6.219,3.261C215.398,175.38,215.009,175.049,214.556,174.581z M234.158,171.529c-2.977,2.174-5.385,5.135-8.002,7.792c-1.259,1.279-3.117,0.647-4.552,1.59c-0.732,0.481-1.354-0.546-0.951-1.396 c0.921-1.942,1.574-4.039,3.443-5.434c1.33-0.993,2.482-2.225,3.714-3.35c2.292-2.367,4.277-5.112,7.601-6.236 c0.546-0.185,1.272-0.824,1.324-1.315c0.276-2.611,2.899-2.886,4.237-4.418c0.6-0.686,1.756-0.728,2.295,0.256 c0.433,0.789-0.153,1.637-0.865,1.875c-1.181,0.394-2.263,0.646-1.816,2.265c0.029,0.105-0.039,0.338-0.091,0.348 C236.064,164.295,237.116,169.371,234.158,171.529z M271.399,276.265c-0.605,2.842-2.089,4.835-5.039,5.728 c-2.434,0.737-4.67,1.878-4.353,5.107c0.085,0.868-0.672,1.337-1.202,1.87c-3.446,3.464-6.904,6.917-10.364,10.366 c-0.362,0.361-0.724,0.774-1.169,0.991c-1.769,0.863-3.042,0.008-3.06-2.001c-0.028-3.067-0.027-3.067-3.539-2.987 c-1.76,0.04-4.021-2.143-4.207-4.063c-0.156-1.611,2.05-4.763,3.512-4.854c0.597-0.037,1.216,0.327,1.83,0.487 c0.867,0.226,1.734,0.451,2.61,0.639c0.48,0.103,0.989,0.266,1.691-0.338c-0.081-0.213-0.095-0.349-0.169-0.433 c-3.494-3.994-3.534-4.043,0.764-7.466c1.106-0.881,2.18-1.76,3.817-2.112c2.059-0.444,3.508-2.312,4.786-4.11 c2.807-3.95,6.937-4.97,11.487-4.919c1.535,0.017,2.284,0.865,2.541,2.354C271.665,272.444,271.806,274.352,271.399,276.265z M272.449,224.874c-1.537,1.49-4.802,2.727-5.371,2.105c-0.461-0.503,0.792-4.456,1.835-5.514c3.064-3.108,6.158-6.188,9.257-9.262 c0.703-0.697,1.297-1.596,2.587-1.185c0.855,0.272,1.802-0.487,1.906-0.981c0.53-2.51,3.768-2.498,4.358-4.953 c0.202-0.839,1.229-0.699,1.957-0.375c0.518,0.406,0.546,1.172,0.308,1.395c-1.468,1.376-1.378,4.053-3.878,4.569 c-0.876,0.181-1.865,0.686-2.029,1.562c-0.627,3.358-3.466,4.956-5.495,7.182C276.156,221.313,274.292,223.087,272.449,224.874z M292.878,210.763c0.104-0.531,0.869-0.995,1.568-0.578c0.794,0.474,0.97,1.598,0.496,1.979c-1.441,1.159-1.526,3.437-3.512,4.073 c-1.558,0.499-2.136,1.738-2.956,3.109c-3.451,5.765-8.543,10.055-13.824,14.084c-0.835,0.637-2.198-0.342-1.895-1.401 c0.535-1.872,0.391-3.995,2.221-5.448c1.595-1.266,2.93-2.861,4.379-4.311c1.268-1.268,2.524-2.55,3.809-3.801 c0.979-0.952,1.769-2.141,3.519-1.858c0.602,0.097,1.895-0.588,1.923-0.982C288.799,212.869,292.397,213.223,292.878,210.763z"/>
	<path fill="#C33227" d="M95.57,324.85c4.173-5.043,8.382-10.056,12.511-15.135c6.73-8.278,13.463-16.615,21.371-23.757 c9.584-8.655,21.106-13.539,34.049-14.732c3.085-0.284,6.143,0.034,9.062,1.317c1.927,0.847,2.617,2.026,2.33,4.205 c-0.994,7.555-2.874,14.839-5.538,21.988c-3.321,8.911-8.805,16.114-15.967,22.238c-9.672,8.27-19.827,15.892-30.299,23.107 c-2.744,1.89-5.481,3.791-8.219,5.685c-1.788,1.242-3.542,2.543-5.375,3.721c-8.095,5.201-16.111,10.538-24.352,15.498 c-8.466,5.095-16.928,10.238-25.98,14.276c-1.533,0.684-3.113,1.635-5.071,0.932c0.181-1.705,0.894-2.888,1.588-4.119 c5.06-8.974,11.243-17.201,17.252-25.518C80.218,344.468,88.001,334.736,95.57,324.85z"/>
	<path fill="#FAEF58" d="M95.57,324.85c-7.569,9.886-15.352,19.618-22.64,29.707c-6.008,8.317-12.192,16.544-17.252,25.518 c-0.694,1.231-1.407,2.414-1.588,4.119c1.958,0.703,3.538-0.247,5.071-0.932c9.052-4.038,17.514-9.181,25.98-14.276 c8.242-4.96,16.257-10.297,24.352-15.498c1.833-1.178,3.587-2.479,5.375-3.721c3.001,1.959,6.627,1.85,9.879,2.98 c-6.271,5.523-13.113,10.301-19.865,15.195c-9.66,7.003-19.587,13.626-29.735,19.885c-11.252,6.94-22.639,13.688-34.743,19.095 c-2.346,1.048-4.777,1.942-7.331,2.367c-2.773,0.461-3.866-0.566-3.46-3.374c0.2-1.385,0.656-2.758,1.172-4.068 c2.364-6.001,5.616-11.508,9.213-16.857c5.087-7.564,10.541-14.85,16.165-22.008c4.199-5.344,8.552-10.57,12.941-15.761 c6.797-8.038,13.735-15.95,21.066-23.517c1.5-1.548,2.461-3.614,4.387-4.796C95.283,320.823,94.541,322.987,95.57,324.85z"/>
</svg>
